<?xml version="1.0" standalone="no"?>
<!DOCTYPE svg PUBLIC "-//W3C//DTD SVG 20010904//EN"
 "http://www.w3.org/TR/2001/REC-SVG-20010904/DTD/svg10.dtd">
<svg version="1.0" xmlns="http://www.w3.org/2000/svg"
 width="280.000000pt" height="280.000000pt" viewBox="0 0 280.000000 280.000000"
 preserveAspectRatio="xMidYMid meet">

<g transform="translate(0.000000,280.000000) scale(0.100000,-0.100000)"
fill="#000000" stroke="none">
<path d="M1225 2455 c-270 -46 -540 -215 -695 -435 -14 -19 -28 -37 -31 -40
-14 -12 -74 -131 -101 -200 -41 -105 -59 -197 -65 -330 -16 -354 119 -650 407
-894 8 -7 29 -21 45 -32 17 -10 32 -21 35 -24 12 -14 141 -79 205 -103 107
-40 189 -57 315 -63 423 -22 802 192 1007 566 34 63 86 207 105 295 19 92 16
342 -6 445 -10 47 -21 90 -25 95 -4 6 -16 33 -26 60 -58 159 -180 327 -319
439 -46 38 -51 27 -9 -19 58 -64 130 -190 157 -275 10 -30 22 -64 27 -75 15
-33 29 -145 29 -230 0 -492 -394 -894 -879 -897 -111 0 -170 11 -259 52 -35
17 -66 30 -68 30 -26 0 -209 168 -219 201 -4 10 -10 19 -14 19 -8 0 -61 111
-81 170 -18 54 -25 249 -11 322 13 64 68 203 92 233 89 110 186 192 267 227
26 10 56 23 67 28 38 17 100 30 193 41 144 16 202 61 222 171 13 68 -6 135
-50 179 -61 60 -146 72 -315 44z"/>
</g>
</svg>
