<?xml version="1.0" standalone="no"?>
<!DOCTYPE svg PUBLIC "-//W3C//DTD SVG 20010904//EN"
 "http://www.w3.org/TR/2001/REC-SVG-20010904/DTD/svg10.dtd">
<svg version="1.0" xmlns="http://www.w3.org/2000/svg"
 width="300.000000pt" height="300.000000pt" viewBox="0 0 300.000000 300.000000"
 preserveAspectRatio="xMidYMid meet">

<g transform="translate(0.000000,300.000000) scale(0.100000,-0.100000)"
fill="#000000" stroke="none">
<path d="M1295 2979 c-244 -33 -525 -153 -719 -308 -98 -78 -247 -239 -315
-341 -298 -445 -336 -1010 -101 -1495 71 -147 155 -262 289 -395 141 -140 231
-207 389 -285 487 -242 1059 -201 1517 108 117 79 303 265 382 382 174 258
263 545 263 850 0 710 -496 1318 -1200 1470 -90 19 -403 28 -505 14z m380
-374 c92 -15 140 -54 448 -363 349 -350 352 -355 352 -512 0 -154 -6 -163
-336 -495 l-279 -281 125 -124 c69 -69 125 -130 125 -136 0 -6 -67 -77 -148
-156 -188 -183 -223 -203 -362 -203 -163 0 -146 -13 -648 488 -461 461 -471
472 -492 589 -14 73 1 164 38 233 19 35 151 174 453 476 352 352 435 430 482
453 55 27 141 46 182 40 11 -2 38 -6 60 -9z"/>
<path d="M1210 1855 l-385 -385 386 -386 385 -385 127 127 128 128 -128 128
-128 128 260 260 260 260 -255 255 c-140 140 -257 255 -260 255 -3 0 -178
-173 -390 -385z"/>
</g>
</svg>
