<?xml version="1.0" standalone="no"?>
<!DOCTYPE svg PUBLIC "-//W3C//DTD SVG 20010904//EN"
 "http://www.w3.org/TR/2001/REC-SVG-20010904/DTD/svg10.dtd">
<svg version="1.0" xmlns="http://www.w3.org/2000/svg"
 width="300.000000pt" height="246.000000pt" viewBox="0 0 300.000000 246.000000"
 preserveAspectRatio="xMidYMid meet">

<g transform="translate(0.000000,246.000000) scale(0.100000,-0.100000)"
fill="#000000" stroke="none">
<path d="M924 2444 c-70 -23 -144 -115 -219 -270 -131 -273 -254 -453 -439
-642 -86 -88 -202 -188 -263 -227 -2 -1 4 -26 13 -56 30 -103 86 -149 182
-149 54 0 145 28 198 61 19 11 38 19 43 17 5 -2 -7 -77 -25 -168 -58 -283 -61
-494 -9 -657 45 -142 138 -256 255 -312 51 -24 65 -26 185 -26 143 0 187 13
312 86 66 39 238 206 306 295 88 117 257 417 403 718 68 138 66 139 84 -54 36
-387 96 -522 268 -603 65 -31 71 -32 197 -32 121 1 136 3 212 32 177 68 287
176 343 338 39 114 18 246 -41 253 -20 2 -49 -16 -130 -83 -175 -145 -249
-175 -314 -123 -57 45 -60 64 -80 608 -13 351 -14 369 -40 445 -32 95 -62 138
-118 167 -82 42 -201 23 -246 -41 -10 -14 -119 -222 -243 -461 -252 -488 -290
-554 -429 -760 -116 -172 -198 -274 -242 -301 -145 -88 -209 121 -147 486 12
72 64 300 116 508 119 477 124 500 131 627 7 125 -10 200 -57 254 -54 61 -143
91 -206 70z"/>
</g>
</svg>
